<?xml version="1.0" standalone="no"?>
<!DOCTYPE svg PUBLIC "-//W3C//DTD SVG 1.1//EN" "http://www.w3.org/Graphics/SVG/1.1/DTD/svg11.dtd" >
<svg>
<metadata>
Created by FontForge 20120731 at Mon Mar 21 10:01:26 2016
 By www-data
Typeface (c)Chequered Ink. 2016. All Rights Reserved
</metadata>
<defs>
<font id="BreatheFire" horiz-adv-x="888" >
  <font-face 
    font-family="Breathe Fire"
    font-weight="400"
    font-stretch="normal"
    units-per-em="2048"
    panose-1="2 0 5 0 0 0 0 0 0 0"
    ascent="1638"
    descent="-410"
    x-height="1025"
    cap-height="1432"
    bbox="-86 -425 1737 1556"
    underline-thickness="150"
    underline-position="-142"
    unicode-range="U+0020-007E"
  />
    <missing-glyph />
    <glyph glyph-name="space" unicode=" " horiz-adv-x="508" 
 />
    <glyph glyph-name="space" unicode="&#xa0;" horiz-adv-x="508" 
 />
    <glyph glyph-name="exclam" unicode="!" horiz-adv-x="325" 
d="M-77 -133q84 44 84 91l37 166l185 -2l-54 -361h-24q-228 97 -228 106zM-86 482q100 106 100 217v533q0 103 -71 183v17h343v-17l-71 -100v-1083h-29q-272 229 -272 250z" />
    <glyph glyph-name="quotedbl" unicode="&#x22;" horiz-adv-x="578" 
d="M202 1173l-17 -114h-24q-228 97 -228 106q84 44 84 91l37 166l185 -2l-32 -213q53 36 53 73l37 166l185 -2l-54 -361h-24q-151 64 -202 90z" />
    <glyph glyph-name="numbersign" unicode="#" horiz-adv-x="945" 
d="M146 720v220l-155 -5v167l155 5v76q0 124 -63 219v20h300v-20l-62 -119v-170l193 6v74q0 124 -63 219v20h300v-20l-62 -119v-168l171 6v-167l-171 -6v-220l171 6v-167l-171 -6v-571h-25q-238 273 -238 298q88 126 88 259v8l-193 -6v-569h-25q-238 273 -238 298
q88 126 88 259v6l-155 -5v167zM321 946v-220l193 6v220z" />
    <glyph glyph-name="dollar" unicode="$" horiz-adv-x="1112" 
d="M502 658q-137 202 -363 515v40q192 200 448 217q5 38 9 74q53 38 84 31t36 -55l-4 -53q194 -26 302 -194v-20q0 -31 -79 -79h-20q0 143 -139 218h-71l-44 -522q136 -201 373 -532v-39q-151 -230 -442 -256l-10 -117q-52 -10 -157 -10q7 70 13 138q-438 89 -438 284
q22 0 159 120h40q0 -282 248 -315q29 301 55 555zM601 115q91 41 115 183q0 29 -85 166zM574 1316q-97 -44 -97 -103v-79q0 -19 63 -119q18 164 34 301z" />
    <glyph glyph-name="percent" unicode="%" horiz-adv-x="1141" 
d="M901 1446q32 -21 126 -21v-21q-160 -142 -650 -1257v-21l33 -126h-347q-42 0 -42 42q149 198 608 1215q-21 41 -21 63h-1l-6 108q129 5 300 18zM273 1365l28 -40l-16 -191l-221 -2l-2 189q11 34 211 44zM913 258l28 -40l-16 -191l-221 -2l-2 189q11 34 211 44z" />
    <glyph glyph-name="ampersand" unicode="&#x26;" horiz-adv-x="1165" 
d="M824 0q-597 0 -806 552q-18 111 -18 184q0 553 666 696q216 -41 263 -82q-35 -153 -35 -184h-18q-98 123 -210 123h-35q-280 0 -351 -430v-41h438q125 11 161 68v82h-24l8 58l294 4l-48 -62h-28l-15 -71v-345h3v-20q-2 -7 -3 -14v-125q0 -260 43 -388q-146 -5 -285 -5z
M879 698q-34 -43 -90 -43h-509q0 -341 403 -450h106q43 18 90 76v417z" />
    <glyph glyph-name="quotesingle" unicode="'" horiz-adv-x="325" 
d="M-67 1165q84 44 84 91l37 166l185 -2l-54 -361h-24q-228 97 -228 106z" />
    <glyph glyph-name="parenleft" unicode="(" 
d="M747 21q-41 0 -41 -21q-138 0 -706 706q539 726 685 726h62q25 -15 59 -47l-55 -301q-30 18 -63 34h-62q-126 0 -306 -269v-104q0 -156 373 -430h67l35 -251q-23 -21 -48 -43z" />
    <glyph glyph-name="parenright" unicode=")" 
d="M59 1411q41 0 41 21q138 0 706 -706q-539 -726 -685 -726h-62q-25 15 -59 47l55 301q30 -18 63 -34h62q126 0 306 269v104q0 156 -373 430h-67l-35 251q23 21 48 43z" />
    <glyph glyph-name="asterisk" unicode="*" horiz-adv-x="735" 
d="M143 1132l-177 124l95 133l176 -124l134 189l133 -119l-123 -173l37 -26q153 -89 215 -1l28 -20l-11 -16q-154 -218 -268 -137l-95 67l-122 -172l-144 102z" />
    <glyph glyph-name="plus" unicode="+" horiz-adv-x="735" 
d="M210 636h-216v163h216v232l177 -20v-212h45q176 15 176 123h35v-20q0 -266 -140 -266h-116v-211h-177v211z" />
    <glyph glyph-name="comma" unicode="," horiz-adv-x="325" 
d="M-77 -133q84 44 84 91l37 166l185 -2l-54 -361h-24q-228 97 -228 106z" />
    <glyph glyph-name="hyphen" unicode="-" horiz-adv-x="735" 
d="M-6 799h438q176 15 176 123h35v-20q0 -266 -140 -266h-509v163z" />
    <glyph glyph-name="hyphen" unicode="&#xad;" horiz-adv-x="735" 
d="M-6 799h438q176 15 176 123h35v-20q0 -266 -140 -266h-509v163z" />
    <glyph glyph-name="period" unicode="." horiz-adv-x="325" 
d="M216 215l28 -40l-16 -191l-221 -2l-2 189q11 34 211 44z" />
    <glyph glyph-name="slash" unicode="/" horiz-adv-x="1141" 
d="M901 1446q32 -21 126 -21v-21q-160 -142 -650 -1257v-21l33 -126h-347q-42 0 -42 42q149 198 608 1215q-21 41 -21 63h-1l-6 108q129 5 300 18z" />
    <glyph glyph-name="zero" unicode="0" horiz-adv-x="1465" 
d="M685 1432h62q140 -88 602 -685q0 -22 21 -62q-97 -205 -623 -664q-41 0 -41 -21q-138 0 -706 706q539 726 685 726zM320 849v-104q0 -156 373 -430h62q130 0 347 310v21q-116 325 -414 472h-62q-126 0 -306 -269z" />
    <glyph glyph-name="one" unicode="1" horiz-adv-x="554" 
d="M325 1432h34v-1293l85 -119v-20h-410v20q86 95 86 219v636q0 133 -120 259q0 25 325 298z" />
    <glyph glyph-name="two" unicode="2" horiz-adv-x="1112" 
d="M139 219v40q577 799 577 875q-33 199 -199 199q-318 0 -318 -319h-40q-137 120 -159 120q0 212 517 298q347 0 517 -259v-39q-557 -780 -557 -836v-79q0 -85 199 -139h100q139 75 139 218h20q79 -48 79 -79v-20q-128 -199 -378 -199q-287 0 -497 219z" />
    <glyph glyph-name="three" unicode="3" horiz-adv-x="1188" 
d="M244 21q541 240 541 421q-154 190 -261 190h-60q-135 -8 -200 -30l-147 47l107 48v-2h20q440 219 440 379q-153 190 -260 190h-200v-72l-221 39v159q6 42 40 42h80q60 0 161 -63l200 63q501 -112 501 -358q0 -29 -321 -274q421 -158 421 -358q0 -73 -721 -505
q-130 -42 -181 -42h-80v42q10 0 80 21v35l52 28h9z" />
    <glyph glyph-name="four" unicode="4" horiz-adv-x="1103" 
d="M0 1432h289q36 -6 36 -40l-36 -61v-565h468v121q0 365 -55 545h289q36 -6 36 -40l-36 -61v-1210l54 -101l-36 -20h-288v20q36 131 36 182v464h-708l5 221q0 365 -54 545z" />
    <glyph glyph-name="five" unicode="5" horiz-adv-x="1112" 
d="M398 0q-249 0 -378 199v20q0 31 79 79h20q0 -143 140 -218h99q199 54 199 139v79q0 56 -557 836v39q170 259 517 259q517 -86 517 -298q-22 0 -159 -120h-40q0 319 -318 319q-166 0 -199 -199q0 -76 577 -875v-40q-210 -219 -497 -219z" />
    <glyph glyph-name="six" unicode="6" horiz-adv-x="1236" 
d="M333 792q-3 -13 -6 -27v-175q0 -292 403 -385h35q25 0 52 52v158q-11 265 -100 296q-163 42 -384 81zM1125 532v-409q0 -123 -164 -123q-696 0 -941 552q-20 111 -20 184q0 683 777 696q252 -41 307 -82q-41 -153 -41 -184h-20q-115 93 -246 93h-41q-307 0 -398 -353
l464 6q300 -64 323 -380z" />
    <glyph glyph-name="seven" unicode="7" horiz-adv-x="1141" 
d="M901 1446q32 -21 126 -21v-21q-160 -142 -650 -1257v-21l33 -126h-347q-42 0 -42 42q149 198 608 1215q-21 41 -21 63h-147q-210 0 -419 -398h-42v21q116 482 189 482h272q167 0 440 21z" />
    <glyph glyph-name="eight" unicode="8" horiz-adv-x="1112" 
d="M558 612q-200 -237 -267 -304q57 -140 253 -140q143 0 172 172q0 37 -158 272zM446 741q-125 180 -307 432v40q210 219 497 219q250 0 378 -199v-20q0 -14 -16 -31l6 -6q-178 -216 -318 -382q132 -194 348 -496v-39q-170 -259 -517 -259q-517 86 -517 298q11 0 54 32
q183 199 392 411zM807 1165q-20 90 -114 143h-87q-172 -49 -172 -125v-72q0 -24 116 -206q124 128 257 260z" />
    <glyph glyph-name="nine" unicode="9" horiz-adv-x="1236" 
d="M792 640q3 13 6 27v175q0 292 -403 385h-35q-25 0 -52 -52v-158q11 -265 100 -296q163 -42 384 -81zM0 900v409q0 123 164 123q696 0 941 -552q20 -111 20 -184q0 -683 -777 -696q-252 41 -307 82q41 153 41 184h20q115 -93 246 -93h41q307 0 398 353l-464 -6
q-300 64 -323 380z" />
    <glyph glyph-name="colon" unicode=":" horiz-adv-x="325" 
d="M216 215l28 -40l-16 -191l-221 -2l-2 189q11 34 211 44zM216 1024l28 -40l-16 -191l-221 -2l-2 189q11 34 211 44z" />
    <glyph glyph-name="semicolon" unicode=";" horiz-adv-x="324" 
d="M-77 -133q84 44 84 91l37 166l185 -2l-54 -361h-24q-228 97 -228 106zM216 1024l28 -40l-16 -191l-221 -2l-2 189q11 34 211 44z" />
    <glyph glyph-name="semicolon" unicode="&#x37e;" horiz-adv-x="324" 
d="M-77 -133q84 44 84 91l37 166l185 -2l-54 -361h-24q-228 97 -228 106zM216 1024l28 -40l-16 -191l-221 -2l-2 189q11 34 211 44z" />
    <glyph glyph-name="less" unicode="&#x3c;" 
d="M747 21q-41 0 -41 -21q-138 0 -706 706q539 726 685 726h62q25 -15 59 -47l-55 -301q-30 18 -63 34h-62q-126 0 -306 -269v-104q0 -156 373 -430h67l35 -251q-23 -21 -48 -43z" />
    <glyph glyph-name="equal" unicode="=" horiz-adv-x="735" 
d="M-6 942h438q176 15 176 123h35v-20q0 -266 -140 -266h-509v163zM-6 642h438q176 15 176 123h35v-20q0 -266 -140 -266h-509v163z" />
    <glyph glyph-name="greater" unicode="&#x3e;" 
d="M59 1411q41 0 41 21q138 0 706 -706q-539 -726 -685 -726h-62q-25 15 -59 47l55 301q30 -18 63 -34h62q126 0 306 269v104q0 156 -373 430h-67l-35 251q23 21 48 43z" />
    <glyph glyph-name="question" unicode="?" horiz-adv-x="902" 
d="M109 485v31q450 624 450 683q-26 155 -155 155q-249 0 -249 -248h-31q-107 93 -124 93q0 166 404 233q270 0 403 -202v-31q-434 -609 -434 -652v-62q0 -66 155 -109h77q109 60 109 171h16q62 -38 62 -62v-15q-101 -156 -295 -156q-225 0 -388 171zM219 -99q84 44 84 91
l37 166l185 -2l-54 -361h-24q-228 97 -228 106z" />
    <glyph glyph-name="at" unicode="@" horiz-adv-x="1026" 
d="M356 1026q285 0 285 -86q214 -736 285 -926l-29 -14h-213l-29 14q29 47 29 86v14q-29 271 -86 271h-14q-479 -385 -541 -385q-36 0 -43 57q0 561 413 812v28q0 22 -100 114q28 15 43 15zM277 514v-209h33q213 143 243 209q-44 254 -77 254h-33q-166 -108 -166 -254z" />
    <glyph glyph-name="A" unicode="A" horiz-adv-x="1398" 
d="M497 1432q398 0 398 -119q298 -1028 398 -1293l-40 -20h-298l-40 20q40 65 40 119v20q-40 378 -120 378h-20q-668 -537 -755 -537q-50 0 -60 80q0 784 577 1133v40q0 30 -139 159q38 20 59 20zM387 718v-293h46q298 201 339 293q-61 355 -107 355h-47
q-231 -151 -231 -355z" />
    <glyph glyph-name="B" unicode="B" horiz-adv-x="1188" 
d="M43 1432h80q60 0 161 -63l200 63q501 -112 501 -358q0 -29 -321 -274q421 -158 421 -358q0 -73 -721 -505q-130 -42 -181 -42h-80v42q10 0 80 21v42h-200q-40 0 -40 42q60 75 60 632v716q6 42 40 42zM224 1264v-569h20q440 219 440 379q-153 190 -260 190h-200zM203 548
v-421l21 -106h20q541 240 541 421q-154 190 -261 190h-60q-261 -15 -261 -84z" />
    <glyph glyph-name="C" unicode="C" horiz-adv-x="1351" 
d="M777 1432q252 -41 307 -82q-41 -153 -41 -184h-20q-115 123 -246 123h-41q-327 0 -409 -430v-204q0 -341 471 -450h123q127 46 286 347h41v-20q-128 -512 -184 -512q-34 -20 -103 -20q-696 0 -941 552q-20 111 -20 184q0 553 777 696z" />
    <glyph glyph-name="D" unicode="D" horiz-adv-x="1155" 
d="M12 266v1002l-20 143l41 20h409q613 -548 613 -695v-20q-197 -287 -323 -501.5t-331 -214.5h-266q-123 6 -123 266zM339 225q155 0 471 511q0 110 -450 511h-62v-1022h41z" />
    <glyph glyph-name="E" unicode="E" horiz-adv-x="1165" 
d="M666 1432q216 -41 263 -82q-35 -153 -35 -184h-18q-98 123 -210 123h-35q-280 0 -351 -430v-41h438q176 15 176 123h35v-20q0 -266 -140 -266h-509q0 -341 403 -450h106q109 46 245 347h35v-20q-110 -512 -158 -512q-29 -20 -87 -20q-597 0 -806 552q-18 111 -18 184
q0 553 666 696z" />
    <glyph glyph-name="F" unicode="F" horiz-adv-x="1103" 
d="M-20 1432h846q75 0 182 -484h-41q-201 383 -403 383h-241q-40 -6 -40 -40v-474h442q162 0 162 -282h-41q0 106 -201 121h-362v-555l40 -61q0 -40 -40 -40h-323q61 179 61 545v685q0 40 -41 202z" />
    <glyph glyph-name="G" unicode="G" horiz-adv-x="1236" 
d="M777 1432q252 -41 307 -82q-41 -153 -41 -184h-20q-115 93 -246 93h-41q-327 0 -409 -400v-204q0 -341 471 -450h41q29 0 61 61v184q0 131 -193 326l41 20h368q41 -6 41 -41q-32 -155 -32 -223v-409q0 -123 -164 -123q-696 0 -941 552q-20 111 -20 184q0 683 777 696z
" />
    <glyph glyph-name="H" unicode="H" horiz-adv-x="1103" 
d="M0 1432h289q36 -6 36 -40l-36 -61v-565h468v121q0 365 -55 545h289q36 -6 36 -40l-36 -61v-1210l54 -101l-36 -20h-288v20q36 131 36 182v464h-468v-545l54 -101l-36 -20h-289v20q36 131 36 182v685q0 365 -54 545z" />
    <glyph glyph-name="I" unicode="I" horiz-adv-x="554" 
d="M0 298q120 126 120 259v636q0 124 -86 219v20h410v-20l-85 -119v-1293h-34q-325 273 -325 298z" />
    <glyph glyph-name="J" unicode="J" horiz-adv-x="1031" 
d="M625 1432h323q-40 -115 -61 -383q21 -272 21 -404q0 -450 -545 -625q-109 -20 -181 -20q-81 0 -182 524l40 21h21q86 -343 262 -343q145 0 302 242v887l-40 61q6 40 40 40z" />
    <glyph glyph-name="K" unicode="K" horiz-adv-x="1150" 
d="M106 1432h84q57 0 127 -42l-22 -106v-527h22q358 454 358 654h380v-21q-223 -240 -485 -675q546 -847 907 -1098q0 -42 -42 -42h-42q-367 0 -697 570q-245 316 -274 316q-148 -132 -148 -253v-84l21 -106l-42 -21h-211q-42 0 -42 42q63 75 63 633v718q7 42 43 42z" />
    <glyph glyph-name="L" unicode="L" horiz-adv-x="1007" 
d="M0 1432h323q40 -6 40 -40l-40 -61v-1190q6 -40 40 -40h101q202 0 403 383h41v-20q-117 -464 -182 -464h-706v20q41 131 41 182v685q0 365 -61 545z" />
    <glyph glyph-name="M" unicode="M" horiz-adv-x="1556" 
d="M88 1432l639 -661l661 639l22 -44v-1190l44 -154l-44 -22h-132q-44 0 -44 44q44 81 44 176v441q0 44 -44 44h-44l-441 -463h-22l-463 485h-44q-44 -7 -44 -44v-441q0 -55 44 -198l-44 -22h-132q-44 0 -44 44q44 72 44 132v1190q7 44 44 44z" />
    <glyph glyph-name="N" unicode="N" horiz-adv-x="1079" 
d="M767 1556h225l-22 -271v-1285h-68q0 68 -631 722h-45q-46 -7 -46 -45v-451q0 -57 46 -203l-46 -23h-135q-45 0 -45 45q45 74 45 135v1218q7 45 45 45q649 -699 722 -699l45 90q-23 677 -90 677v45z" />
    <glyph glyph-name="O" unicode="O" horiz-adv-x="1465" 
d="M685 1432h62q140 -88 602 -685q0 -22 21 -62q-97 -205 -623 -664q-41 0 -41 -21q-138 0 -706 706q539 726 685 726zM320 849v-104q0 -156 373 -430h62q130 0 347 310v21q-116 325 -414 472h-62q-126 0 -306 -269z" />
    <glyph glyph-name="P" unicode="P" horiz-adv-x="1160" 
d="M65 1432h85q63 0 168 -63l211 63q526 -112 526 -358q0 -72 -695 -463q-126 -13 -126 -63v-422l21 -105l-42 -21h-211q-42 0 -42 42q63 74 63 632v716q7 42 42 42zM255 1264v-569h21q463 219 463 379q-161 190 -274 190h-210z" />
    <glyph glyph-name="Q" unicode="Q" horiz-adv-x="1470" 
d="M685 1432h62q140 -89 602 -685q0 -22 21 -63q0 -33 -270 -353q263 -430 477 -518q0 -42 -41 -42h-42q-316 0 -560 374l-228 -146q-138 0 -706 706q539 727 685 727zM311 892v-104q0 -157 436 -498h62v21l-207 290l41 21h146q91 0 228 -166q32 0 83 83v21
q-179 392 -477 539h-63q-126 0 -249 -207z" />
    <glyph glyph-name="R" unicode="R" horiz-adv-x="1131" 
d="M43 1427h84q64 0 169 -63l210 63q526 -112 526 -358q0 -43 -484 -358v-63q507 -783 863 -1031q0 -42 -42 -42h-42q-372 0 -758 652q-269 358 -336 358l-21 -42v-421l21 -105l-42 -21h-211q-42 0 -42 42q63 74 63 631v716q7 42 42 42zM233 1259v-569h21q463 219 463 379
q-161 190 -274 190h-210z" />
    <glyph glyph-name="S" unicode="S" horiz-adv-x="1112" 
d="M636 1432q250 0 378 -199v-20q0 -31 -79 -79h-20q0 143 -139 218h-100q-199 -54 -199 -139v-79q0 -56 557 -836v-39q-170 -259 -517 -259q-517 86 -517 298q22 0 159 120h40q0 -319 318 -319q166 0 199 199q0 76 -577 875v40q210 219 497 219z" />
    <glyph glyph-name="T" unicode="T" horiz-adv-x="1145" 
d="M182 1432h685q134 0 182 -323v-60h-41q0 191 -302 302h-40l-21 -101v-705q0 -365 61 -545h-323q-40 0 -40 40l40 61v1250h-40q-186 0 -303 -302h-40v20q34 363 182 363z" />
    <glyph glyph-name="U" unicode="U" horiz-adv-x="1007" 
d="M0 1432h314q39 -6 39 -39q-59 -107 -59 -177l20 -235l-20 -118q0 -639 236 -745h19q92 58 118 726l-59 568q106 20 177 20h137l39 -20q-53 -73 -78 -255q19 -134 19 -215v-432q0 -415 -353 -510h-19q-471 294 -471 530v255q0 433 -59 647z" />
    <glyph glyph-name="V" unicode="V" horiz-adv-x="1375" 
d="M0 1432h368q41 -6 41 -41l-41 -61q130 -1105 266 -1105q0 -29 62 -61h20q41 0 225 1043v123l-41 61q7 41 41 41h368q-102 -252 -307 -1227q-157 -170 -306 -205q-386 235 -553 818z" />
    <glyph glyph-name="W" unicode="W" horiz-adv-x="1833" 
d="M1288 1451l40 -20h409q-102 -252 -306 -1227q-157 -169 -307 -204q-157 123 -225 123q-109 -115 -204 -123q-386 235 -552 817l-143 614h797q41 -7 41 -41l-41 -62q0 -122 61 -429h41q41 192 41 307v122l-41 62q7 41 41 41h327q21 0 21 20zM1308 1390q-80 0 -266 -1124
q40 -94 82 -103h20q41 0 225 1043v122q0 30 -61 62zM368 1328q129 -1103 266 -1103q0 -30 61 -62h20q41 0 41 41v123q-306 792 -306 1022q-21 0 -21 20q-61 -20 -61 -41z" />
    <glyph glyph-name="X" unicode="X" horiz-adv-x="1131" 
d="M0 1432h338q34 0 80 -259q77 -159 99 -159q159 237 159 418h358v-20q-171 -226 -378 -656v-80q207 -430 378 -656v-20h-338q-34 0 -79 259q-78 159 -100 159q-159 -237 -159 -418h-358v20q171 226 378 656v80q-207 430 -378 656v20z" />
    <glyph glyph-name="Y" unicode="Y" horiz-adv-x="1332" 
d="M101 1451l40 -20h181l41 -20l-20 -81q106 -826 362 -826h21l181 786v20q0 55 -40 121l40 20h302q40 -6 40 -40l-443 -1371q-102 -40 -363 -40h-20q-40 0 -40 40q67 0 282 282v61q-346 154 -524 564q-101 227 -141 484q101 0 101 20z" />
    <glyph glyph-name="Z" unicode="Z" horiz-adv-x="1141" 
d="M901 1446q32 -21 126 -21v-21q-160 -142 -650 -1257v-21l105 -21h105q209 0 419 398h42v-21q-121 -482 -189 -482h-796q-42 0 -42 42q149 198 608 1215q-21 41 -21 63h-147q-210 0 -419 -398h-42v21q116 482 189 482h272q167 0 440 21z" />
    <glyph glyph-name="bracketleft" unicode="[" 
d="M747 21q-41 0 -41 -21q-138 0 -706 706q539 726 685 726h62q25 -15 59 -47l-55 -301q-30 18 -63 34h-62q-126 0 -306 -269v-104q0 -156 373 -430h67l35 -251q-23 -21 -48 -43z" />
    <glyph glyph-name="backslash" unicode="\" horiz-adv-x="1141" 
d="M601 18l6 108h1q0 22 21 63q-459 1017 -608 1215q0 42 42 42h347l-33 -126v-21q490 -1115 650 -1257v-21q-94 0 -126 -21q-171 13 -300 18z" />
    <glyph glyph-name="bracketright" unicode="]" 
d="M59 1411q41 0 41 21q138 0 706 -706q-539 -726 -685 -726h-62q-25 15 -59 47l55 301q30 -18 63 -34h62q126 0 306 269v104q0 156 -373 430h-67l-35 251q23 21 48 43z" />
    <glyph glyph-name="asciicircum" unicode="^" horiz-adv-x="1499" 
d="M676 1396h32q335 0 564 -300q124 -187 124 -380v-40q0 -314 -288 -548q-194 -128 -388 -128h-32q-335 0 -564 300q-124 187 -124 380v40q0 314 288 548q194 128 388 128zM96 880h4q688 -4 1084 -4h116q-94 264 -292 364q-138 84 -296 84h-32q-268 0 -468 -228
q-88 -113 -116 -216zM664 1252q24 -28 28 -28l32 28q5 0 32 -32q-6 0 -28 -28v-4q0 -6 28 -28q0 6 28 28h4q6 0 28 -28v-4q0 -6 -28 -28h-4l-32 28q0 -2 -24 -28q28 -30 28 -36l-32 -28l-32 28l-32 -28l-28 32l28 32l-28 28l-32 -28q-5 0 -32 32l32 28l32 -28l28 32
q-6 0 -28 28q0 5 32 32zM692 1220l-28 -32l32 -28q0 2 24 28v4q0 6 -28 28zM692 1156l-28 -32l28 -24q6 0 28 28q0 6 -28 28zM320 1008h12l28 -8v-8l-8 -12q-22 4 -32 4q-16 -4 -16 -24q0 -17 20 -24q26 8 28 8l12 -16q-13 -10 -36 -16q-52 9 -52 48q8 48 44 48zM372 1008
h20q8 -1 8 -8v-28h28v36h28v-92h-28v32h-28v-32h-28v92zM476 1008h64v-24h-44v-12h44v-16q0 -8 -8 -8l-8 4l-8 -4l-20 4v-12h40q8 -1 8 -8v-16h-76v84q1 8 8 8zM600 1008q52 -7 52 -44l-8 -32q8 -1 8 -8q0 -6 -16 -16l-12 8q-22 -4 -32 -4q-33 0 -44 48q0 48 52 48z
M668 1008h12q8 -1 8 -8v-40q3 -24 12 -24h8q6 0 12 12v52l4 8l8 -4h4l8 4l4 -8v-48q-5 -40 -40 -40h-8q-36 0 -40 48v40q1 8 8 8zM764 1008h8l24 -4q8 4 12 4q8 -4 12 -4q8 4 12 4v-20q0 -8 -8 -8q-7 4 -16 4v-4l-8 4h-12v-12h44v-16q0 -8 -8 -8h-36v-12h12q4 0 4 4l8 -4h8
q4 0 4 4q8 -4 12 -4v-20h-20l-24 -4q-7 4 -20 4v-4q-8 4 -12 4v72zM852 1008l28 -4v4q48 -7 48 -32q-3 -28 -20 -28l24 -32l-8 -4h-16q-3 0 -32 32h-4v-16l4 -8l-8 -4h-24v4q0 8 4 8l-4 28l4 40h-4q4 12 8 12zM940 1004h72v-16q0 -8 -8 -8h-36v-8h40v-24h-40v-12h44v-16
q0 -8 -8 -8h-56q-8 0 -8 8v84zM1024 1004h48q36 0 40 -48q0 -42 -64 -44h-16q-8 0 -8 8v84zM576 956q6 -20 28 -20q20 6 20 28q-8 18 -16 20h-16q-16 -6 -16 -28zM872 984v-20h20q8 0 8 8v4q0 8 -8 8h-20zM1052 980v-44h4q22 0 28 16v16q0 6 -12 12h-20zM208 680v-8
q13 -68 64 -68h40q20 10 20 32v16q-16 0 -16 20q0 40 76 40q0 5 16 8v-4q-75 -248 -96 -252h-8q-9 0 -12 20q0 7 20 44q-20 36 -52 36h-12q-64 -9 -64 -64v-8q0 -58 72 -84q21 -4 40 -4h16q125 0 164 172q24 53 84 228q-19 12 -52 12h-24q-31 0 -60 -36q-51 -22 -156 -36
q-60 -21 -60 -64zM796 460l-4 8v12q0 19 32 136q-10 40 -44 40h-28q-17 0 -64 -20v8l4 8q-16 8 -44 8h-40q-35 0 -48 -44q-64 -198 -64 -208q24 -12 68 -12q60 0 60 60q41 132 56 132q12 0 12 4q16 -6 16 -12q-36 -93 -36 -124v-8q0 -39 56 -48q40 0 108 36l-8 -24
q16 -16 56 -16q68 0 68 32q22 160 76 160h12q8 -1 8 -8v-4q0 -27 -52 -52l-4 -20q0 -104 84 -104q87 0 144 108l-16 12h-8q-35 -60 -80 -60h-8q-24 10 -24 36v16l56 36q20 37 20 56v8q0 41 -60 48q-16 0 -84 -24q0 4 -4 4q60 154 60 160q-19 12 -60 12h-36q-30 0 -40 -68
q-11 -12 -80 -236q-45 -48 -60 -48zM208 312v-4q203 -236 476 -236h32q251 0 448 204q24 28 24 32q-502 4 -748 4h-232zM516 244h40v-8h-32v-20h32v-8h-32v-16h28q8 -1 8 -8h-44v60zM580 244h20q6 0 12 -12h-4l-24 4q-8 -1 -8 -8v-8q40 -4 40 -20q-6 -20 -28 -20
q-24 8 -24 16l8 4q0 -9 20 -12l16 8q0 12 -40 20v16q0 6 12 12zM616 244h48v-8h-20v-52h-8v52h-20v8zM716 244q12 0 24 -16q0 -19 -40 -24l-4 -8q1 -8 8 -8h32v-8h-28l-20 4v4q0 28 28 28h12q0 4 4 12l-12 8h-12l-16 -12v8q4 12 24 12zM772 244h4q6 0 16 -16v-32
q-6 -16 -28 -16q-20 6 -20 28v8q0 28 28 28zM820 244v-56h12q0 -8 -8 -8h-20v8h8v44h-8v8q9 0 16 4zM840 244h36q8 -1 8 -8h-36v-16h24q8 -2 16 -20q-6 -20 -28 -20q-20 3 -20 12v8l16 -12h12q6 0 12 12q0 6 -12 12h-28v32zM752 224v-24q0 -6 12 -12h8q6 0 12 12v24
q0 6 -12 12h-8q-6 0 -12 -12z" />
    <glyph glyph-name="underscore" unicode="_" horiz-adv-x="1499" 
d="M676 1396h32q335 0 564 -300q124 -187 124 -380v-40q0 -314 -288 -548q-194 -128 -388 -128h-32q-335 0 -564 300q-124 187 -124 380v40q0 314 288 548q194 128 388 128zM96 880h4q688 -4 1084 -4h116q-94 264 -292 364q-138 84 -296 84h-32q-268 0 -468 -228
q-88 -113 -116 -216zM664 1252q24 -28 28 -28l32 28q5 0 32 -32q-6 0 -28 -28v-4q0 -6 28 -28q0 6 28 28h4q6 0 28 -28v-4q0 -6 -28 -28h-4l-32 28q0 -2 -24 -28q28 -30 28 -36l-32 -28l-32 28l-32 -28l-28 32l28 32l-28 28l-32 -28q-5 0 -32 32l32 28l32 -28l28 32
q-6 0 -28 28q0 5 32 32zM692 1220l-28 -32l32 -28q0 2 24 28v4q0 6 -28 28zM692 1156l-28 -32l28 -24q6 0 28 28q0 6 -28 28zM320 1008h12l28 -8v-8l-8 -12q-22 4 -32 4q-16 -4 -16 -24q0 -17 20 -24q26 8 28 8l12 -16q-13 -10 -36 -16q-52 9 -52 48q8 48 44 48zM372 1008
h20q8 -1 8 -8v-28h28v36h28v-92h-28v32h-28v-32h-28v92zM476 1008h64v-24h-44v-12h44v-16q0 -8 -8 -8l-8 4l-8 -4l-20 4v-12h40q8 -1 8 -8v-16h-76v84q1 8 8 8zM600 1008q52 -7 52 -44l-8 -32q8 -1 8 -8q0 -6 -16 -16l-12 8q-22 -4 -32 -4q-33 0 -44 48q0 48 52 48z
M668 1008h12q8 -1 8 -8v-40q3 -24 12 -24h8q6 0 12 12v52l4 8l8 -4h4l8 4l4 -8v-48q-5 -40 -40 -40h-8q-36 0 -40 48v40q1 8 8 8zM764 1008h8l24 -4q8 4 12 4q8 -4 12 -4q8 4 12 4v-20q0 -8 -8 -8q-7 4 -16 4v-4l-8 4h-12v-12h44v-16q0 -8 -8 -8h-36v-12h12q4 0 4 4l8 -4h8
q4 0 4 4q8 -4 12 -4v-20h-20l-24 -4q-7 4 -20 4v-4q-8 4 -12 4v72zM852 1008l28 -4v4q48 -7 48 -32q-3 -28 -20 -28l24 -32l-8 -4h-16q-3 0 -32 32h-4v-16l4 -8l-8 -4h-24v4q0 8 4 8l-4 28l4 40h-4q4 12 8 12zM940 1004h72v-16q0 -8 -8 -8h-36v-8h40v-24h-40v-12h44v-16
q0 -8 -8 -8h-56q-8 0 -8 8v84zM1024 1004h48q36 0 40 -48q0 -42 -64 -44h-16q-8 0 -8 8v84zM576 956q6 -20 28 -20q20 6 20 28q-8 18 -16 20h-16q-16 -6 -16 -28zM872 984v-20h20q8 0 8 8v4q0 8 -8 8h-20zM1052 980v-44h4q22 0 28 16v16q0 6 -12 12h-20zM208 680v-8
q13 -68 64 -68h40q20 10 20 32v16q-16 0 -16 20q0 40 76 40q0 5 16 8v-4q-75 -248 -96 -252h-8q-9 0 -12 20q0 7 20 44q-20 36 -52 36h-12q-64 -9 -64 -64v-8q0 -58 72 -84q21 -4 40 -4h16q125 0 164 172q24 53 84 228q-19 12 -52 12h-24q-31 0 -60 -36q-51 -22 -156 -36
q-60 -21 -60 -64zM796 460l-4 8v12q0 19 32 136q-10 40 -44 40h-28q-17 0 -64 -20v8l4 8q-16 8 -44 8h-40q-35 0 -48 -44q-64 -198 -64 -208q24 -12 68 -12q60 0 60 60q41 132 56 132q12 0 12 4q16 -6 16 -12q-36 -93 -36 -124v-8q0 -39 56 -48q40 0 108 36l-8 -24
q16 -16 56 -16q68 0 68 32q22 160 76 160h12q8 -1 8 -8v-4q0 -27 -52 -52l-4 -20q0 -104 84 -104q87 0 144 108l-16 12h-8q-35 -60 -80 -60h-8q-24 10 -24 36v16l56 36q20 37 20 56v8q0 41 -60 48q-16 0 -84 -24q0 4 -4 4q60 154 60 160q-19 12 -60 12h-36q-30 0 -40 -68
q-11 -12 -80 -236q-45 -48 -60 -48zM208 312v-4q203 -236 476 -236h32q251 0 448 204q24 28 24 32q-502 4 -748 4h-232zM516 244h40v-8h-32v-20h32v-8h-32v-16h28q8 -1 8 -8h-44v60zM580 244h20q6 0 12 -12h-4l-24 4q-8 -1 -8 -8v-8q40 -4 40 -20q-6 -20 -28 -20
q-24 8 -24 16l8 4q0 -9 20 -12l16 8q0 12 -40 20v16q0 6 12 12zM616 244h48v-8h-20v-52h-8v52h-20v8zM716 244q12 0 24 -16q0 -19 -40 -24l-4 -8q1 -8 8 -8h32v-8h-28l-20 4v4q0 28 28 28h12q0 4 4 12l-12 8h-12l-16 -12v8q4 12 24 12zM772 244h4q6 0 16 -16v-32
q-6 -16 -28 -16q-20 6 -20 28v8q0 28 28 28zM820 244v-56h12q0 -8 -8 -8h-20v8h8v44h-8v8q9 0 16 4zM840 244h36q8 -1 8 -8h-36v-16h24q8 -2 16 -20q-6 -20 -28 -20q-20 3 -20 12v8l16 -12h12q6 0 12 12q0 6 -12 12h-28v32zM752 224v-24q0 -6 12 -12h8q6 0 12 12v24
q0 6 -12 12h-8q-6 0 -12 -12z" />
    <glyph glyph-name="grave" unicode="`" horiz-adv-x="325" 
d="M-67 1165q84 44 84 91l37 166l185 -2l-54 -361h-24q-228 97 -228 106z" />
    <glyph glyph-name="a" unicode="a" horiz-adv-x="1026" 
d="M356 1026q285 0 285 -86q214 -736 285 -926l-29 -14h-213l-29 14q29 47 29 86v14q-29 271 -86 271h-14q-479 -385 -541 -385q-36 0 -43 57q0 561 413 812v28q0 22 -100 114q28 15 43 15zM277 514v-209h33q213 143 243 209q-44 254 -77 254h-33q-166 -108 -166 -254z" />
    <glyph glyph-name="b" unicode="b" horiz-adv-x="869" 
d="M17 1026h59q44 0 118 -47l147 47q368 -83 368 -264q0 -21 -235 -201q309 -117 309 -263q0 -54 -530 -372q-96 -31 -133 -31h-59v31q7 0 59 15v31h-148q-29 0 -29 31q44 55 44 465v527q5 31 30 31zM149 902v-418h15q324 161 324 278q-112 140 -191 140h-148zM135 375v-310
l14 -77h15q398 176 398 310q-113 139 -192 139h-44q-191 -11 -191 -62z" />
    <glyph glyph-name="c" unicode="c" horiz-adv-x="983" 
d="M559 1029q181 -29 220 -59q-29 -110 -29 -132h-15q-82 88 -176 88h-30q-235 0 -294 -308v-147q0 -245 338 -324h89q92 33 206 250h29v-15q-92 -367 -132 -367q-25 -15 -74 -15q-501 0 -676 397q-15 79 -15 132q0 397 559 500z" />
    <glyph glyph-name="d" unicode="d" horiz-adv-x="850" 
d="M6 191v718l-14 102l29 15h293q440 -393 440 -498v-15q-141 -205 -231.5 -359t-237.5 -154h-191q-88 5 -88 191zM241 161q111 0 337 367q0 78 -322 366h-44v-733h29z" />
    <glyph glyph-name="e" unicode="e" horiz-adv-x="864" 
d="M477 1026q155 -29 188 -59q-25 -110 -25 -132h-12q-70 88 -151 88h-25q-201 0 -251 -307v-30h314q125 11 125 88h25v-14q0 -191 -100 -191h-364q0 -244 289 -322h75q78 33 176 249h25v-15q-79 -366 -113 -366q-21 -15 -63 -15q-427 0 -577 396q-13 79 -13 132
q0 395 477 498z" />
    <glyph glyph-name="f" unicode="f" horiz-adv-x="811" 
d="M-25 1033h610q54 0 131 -349h-29q-146 276 -291 276h-174q-29 -4 -29 -29v-341h319q116 0 116 -204h-29q0 77 -145 87h-261v-400l29 -44q0 -29 -29 -29h-233q44 129 44 393v495q0 28 -29 145z" />
    <glyph glyph-name="g" unicode="g" horiz-adv-x="921" 
d="M552 1016q178 -29 217 -58q-29 -109 -29 -131h-14q-81 66 -174 66h-29q-232 0 -291 -283v-145q0 -242 334 -320h29q21 0 44 44v130q0 93 -137 231l29 15h261q29 -5 29 -29q-23 -110 -23 -159v-290q0 -87 -116 -87q-494 0 -667 392q-15 78 -15 131q0 484 552 493z" />
    <glyph glyph-name="h" unicode="h" horiz-adv-x="811" 
d="M0 1021h206q26 -5 26 -29l-26 -43v-403h333v87q0 260 -38 388h206q25 -5 25 -29l-25 -43v-863l38 -72l-25 -14h-206v14q25 94 25 130v331h-333v-389l38 -72l-25 -14h-206v14q26 94 26 130v489q0 260 -39 388z" />
    <glyph glyph-name="i" unicode="i" horiz-adv-x="406" 
d="M0 213q85 89 85 184v454q0 88 -61 156v14h293v-14l-61 -85v-922h-25q-231 195 -231 213z" />
    <glyph glyph-name="j" unicode="j" horiz-adv-x="764" 
d="M447 1024h231q-29 -82 -43 -274q14 -195 14 -288q0 -322 -389 -448q-78 -14 -130 -14q-58 0 -130 375l29 14h14q62 -245 188 -245q104 0 216 173v635l-29 43q5 29 29 29z" />
    <glyph glyph-name="k" unicode="k" horiz-adv-x="857" 
d="M76 1026h60q41 0 91 -30l-15 -76v-378h15q257 326 257 469h272v-15q-160 -172 -348 -484q391 -607 650 -786q0 -30 -30 -30h-30q-263 0 -499 408q-176 227 -197 227q-105 -95 -105 -182v-60l15 -76l-31 -15h-151q-30 0 -30 30q45 54 45 454v514q5 30 31 30z" />
    <glyph glyph-name="l" unicode="l" horiz-adv-x="745" 
d="M0 1026h231q29 -5 29 -29l-29 -43v-853q5 -29 29 -29h72q145 0 289 275h29v-15q-83 -332 -130 -332h-506v14q29 94 29 131v491q0 261 -43 390z" />
    <glyph glyph-name="m" unicode="m" horiz-adv-x="1141" 
d="M63 1029l460 -475l475 459l15 -31v-855l32 -111l-32 -16h-95q-31 0 -31 32q31 58 31 126v317q0 32 -31 32h-32l-317 -333h-15l-333 349h-32q-31 -5 -31 -32v-317q0 -39 31 -142l-31 -16h-95q-32 0 -32 32q32 51 32 95v855q5 31 31 31z" />
    <glyph glyph-name="n" unicode="n" horiz-adv-x="773" 
d="M539 1023h158l-16 -190v-833h-47q0 47 -444 507h-32q-31 -5 -31 -32v-317q0 -39 31 -142l-31 -16h-95q-32 0 -32 32q32 52 32 95v855q5 32 31 32q456 -491 507 -491l32 63q-16 406 -63 406v31z" />
    <glyph glyph-name="o" unicode="o" horiz-adv-x="1074" 
d="M491 1027h45q100 -63 432 -491q0 -16 15 -45q-70 -147 -447 -476q-30 0 -30 -15q-99 0 -506 506q387 521 491 521zM230 609v-74q0 -112 267 -309h45q93 0 249 222v15q-84 234 -297 339h-45q-90 0 -219 -193z" />
    <glyph glyph-name="p" unicode="p" horiz-adv-x="845" 
d="M35 1026h61q45 0 121 -45l150 45q378 -80 378 -256q0 -52 -498 -332q-91 -10 -91 -46v-301l15 -76l-30 -15h-151q-30 0 -30 30q45 53 45 453v513q5 30 30 30zM171 905v-407h15q332 157 332 272q-115 135 -196 135h-151z" />
    <glyph glyph-name="q" unicode="q" horiz-adv-x="1083" 
d="M497 1027h46q101 -64 437 -497q0 -16 15 -45q0 -25 -196 -256q191 -313 346 -377q0 -30 -30 -30h-30q-230 0 -407 271l-166 -106q-100 0 -512 513q391 527 497 527zM226 635v-75q0 -114 317 -362h45v15l-151 211l30 15h106q66 0 165 -120q24 0 61 60v15
q-130 285 -347 392h-45q-92 0 -181 -151z" />
    <glyph glyph-name="r" unicode="r" horiz-adv-x="852" 
d="M34 1026h61q45 0 121 -46l152 46q380 -81 380 -258q-1 -31 -350 -258v-46q366 -565 623 -744q0 -31 -30 -31h-31q-268 0 -546 471q-195 258 -243 258l-16 -30v-304l16 -76l-31 -15h-152q-30 0 -30 31q46 53 46 455v517q4 30 30 30zM171 904v-410h15q334 158 334 274
q-116 136 -197 136h-152z" />
    <glyph glyph-name="s" unicode="s" horiz-adv-x="764" 
d="M385 1025q179 0 271 -143v-14q0 -22 -57 -57h-14q0 103 -100 157h-71q-142 -39 -142 -100v-57q0 -39 398 -597v-29q-122 -185 -370 -185q-370 62 -370 214q16 0 114 85h28q0 -228 228 -228q119 0 142 143q0 54 -412 626v28q150 157 355 157z" />
    <glyph glyph-name="t" unicode="t" horiz-adv-x="850" 
d="M129 1021h489q96 0 130 -230v-43h-29q0 136 -216 215h-28l-15 -71v-504q0 -260 43 -388h-230q-29 0 -29 29l29 43v891h-29q-132 0 -215 -215h-29v14q24 259 129 259z" />
    <glyph glyph-name="u" unicode="u" horiz-adv-x="754" 
d="M0 1031h226q28 -4 28 -28q-42 -77 -42 -127l14 -170l-14 -84q0 -460 169 -537h15q65 42 84 522l-42 410q76 14 127 14h99l28 -14q-38 -52 -56 -184q14 -96 14 -155v-311q0 -299 -254 -367h-15q-339 212 -339 381v184q0 312 -42 466z" />
    <glyph glyph-name="v" unicode="v" horiz-adv-x="1036" 
d="M0 1026h264q29 -5 29 -29l-29 -44q93 -792 190 -792q0 -21 44 -44h15q29 0 161 748v88l-29 44q4 29 29 29h264q-73 -180 -220 -879q-112 -122 -220 -147q-276 168 -395 586z" />
    <glyph glyph-name="w" unicode="w" horiz-adv-x="1327" 
d="M915 1031l29 -15h290q-72 -178 -218 -871q-111 -120 -217 -145q-112 87 -160 87q-77 -81 -145 -87q-274 167 -392 581l-102 435h566q29 -4 29 -29l-29 -43q0 -87 44 -305h29q29 137 29 218v87l-29 43q4 29 29 29h232q15 0 15 15zM929 987q-57 0 -188 -798q28 -66 58 -73
h14q29 0 160 741v87q0 21 -44 43zM261 944q92 -784 189 -784q0 -21 44 -44h14q29 0 29 29v87q-218 563 -218 726q-14 0 -14 15q-44 -15 -44 -29z" />
    <glyph glyph-name="x" unicode="x" horiz-adv-x="840" 
d="M0 1025h242q24 0 57 -185q55 -114 71 -114q114 169 114 299h256v-14q-122 -162 -270 -470v-57q148 -308 270 -470v-14h-242q-24 0 -57 185q-55 114 -71 114q-114 -169 -114 -299h-256v14q122 162 270 470v57q-148 308 -270 470v14z" />
    <glyph glyph-name="y" unicode="y" horiz-adv-x="978" 
d="M231 1026l29 -15l-14 -58q76 -592 260 -592h14l120 543v15q0 39 -29 86l29 15h217q28 -5 28 -29l-307 -962q-73 -29 -260 -29h-15q-29 0 -29 29q48 0 203 202v43q-248 111 -376 405q-72 162 -101 347h231z" />
    <glyph glyph-name="z" unicode="z" horiz-adv-x="850" 
d="M646 1036q22 -15 90 -15v-15q-115 -102 -466 -901v-15l75 -15h75q151 0 301 285h30v-15q-87 -345 -135 -345h-571q-30 0 -30 30q107 142 435 871q-15 29 -15 45h-105q-150 0 -300 -285h-30v15q83 345 135 345h195q120 0 316 15z" />
    <glyph glyph-name="braceleft" unicode="{" 
d="M747 21q-41 0 -41 -21q-138 0 -706 706q539 726 685 726h62q25 -15 59 -47l-55 -301q-30 18 -63 34h-62q-126 0 -306 -269v-104q0 -156 373 -430h67l35 -251q-23 -21 -48 -43z" />
    <glyph glyph-name="bar" unicode="|" horiz-adv-x="554" 
d="M0 298q120 126 120 259v636q0 124 -86 219v20h410v-20l-85 -119v-1293h-34q-325 273 -325 298z" />
    <glyph glyph-name="braceright" unicode="}" 
d="M59 1411q41 0 41 21q138 0 706 -706q-539 -726 -685 -726h-62q-25 15 -59 47l55 301q30 -18 63 -34h62q126 0 306 269v104q0 156 -373 430h-67l-35 251q23 21 48 43z" />
    <glyph glyph-name="asciitilde" unicode="~" horiz-adv-x="735" 
d="M-6 799h438q176 15 176 123h35v-20q0 -266 -140 -266h-509v163z" />
  </font>
</defs>
</svg>
